<?xml version="1.0" encoding="UTF-8" standalone="no"?>
<!-- Created with Inkscape (http://www.inkscape.org/) -->

<svg
   xmlns:dc="http://purl.org/dc/elements/1.1/"
   xmlns:cc="http://creativecommons.org/ns#"
   xmlns:rdf="http://www.w3.org/1999/02/22-rdf-syntax-ns#"
   xmlns:svg="http://www.w3.org/2000/svg"
   xmlns="http://www.w3.org/2000/svg"
   xmlns:sodipodi="http://sodipodi.sourceforge.net/DTD/sodipodi-0.dtd"
   xmlns:inkscape="http://www.inkscape.org/namespaces/inkscape"
   width="54.991432"
   height="64.329231"
   id="svg3169"
   version="1.1"
   inkscape:version="0.48.4 r9939"
   sodipodi:docname="toxstats.svg">
  <sodipodi:namedview
     id="base"
     pagecolor="#ffffff"
     bordercolor="#666666"
     borderopacity="1.0"
     inkscape:pageopacity="0.0"
     inkscape:pageshadow="2"
     inkscape:zoom="1.4142136"
     inkscape:cx="252.10237"
     inkscape:cy="22.754326"
     inkscape:current-layer="layer1"
     inkscape:document-units="px"
     showgrid="false"
     inkscape:window-width="1920"
     inkscape:window-height="1021"
     inkscape:window-x="0"
     inkscape:window-y="0"
     inkscape:window-maximized="1"
     fit-margin-top="0"
     fit-margin-left="0"
     fit-margin-right="0"
     fit-margin-bottom="0" />
  <defs
     id="defs3171" />
  <metadata
     id="metadata3174">
    <rdf:RDF>
      <cc:Work
         rdf:about="">
        <dc:format>image/svg+xml</dc:format>
        <dc:type
           rdf:resource="http://purl.org/dc/dcmitype/StillImage" />
        <dc:title />
      </cc:Work>
    </rdf:RDF>
  </metadata>
  <g
     id="layer1"
     inkscape:label="Layer 1"
     inkscape:groupmode="layer"
     transform="translate(-168.13926,-425.15911)">
    <g
       style="fill:#262626;fill-opacity:1"
       transform="matrix(0.61444312,0,0,0.5915758,168.45705,389.97343)"
       id="g3996">
      <path
         style="fill:#262626;fill-opacity:1"
         d="m 71.056796,101.32905 c 0,-4.684995 0.074,-10.552995 -0.033,-15.236996 -0.047,-2.018 -0.268,-4.076 -0.746,-6.034 -3.421,-13.999 -16.972,-22.705 -31.201,-20.13 -12.596,2.279 -21.973,13.518 -21.973,26.336 v 13.864996 1.17 c -0.475,0 -0.794,-10e-4 -1.116,0 h -11.482 c -2.773,0 -5.02300003,2.249 -5.02300003,5.023 v 56.875 c 0,2.773 2.25000003,5.023 5.02300003,5.023 h 79.451 c 2.775,0 5.024,-2.25 5.024,-5.023 v -56.875 c 0,-2.774 -2.249,-5.023 -5.024,-5.023 l -12.9,0.03 z m -19.467,53.267 h -14.775 c -2.322,0 -4.203,-1.914 -4.203,-4.274 0,-0.063 0.007,-0.127 0.009,-0.19 -0.005,0 -0.006,-1.021 -0.008,-2.041 -0.001,-1.129 0.511,-4.289 2.061,-6.574 1.641,-2.418 3.855,-3.99 6.257,-4.697 -3.166,-1.291 -5.396,-4.398 -5.396,-8.025 0,-4.789 3.88,-8.668 8.667,-8.668 4.789,0 8.667,3.879 8.667,8.668 0,3.719 -2.344,6.891 -5.637,8.12 2.332,0.753 4.537,2.313 6.273,4.707 1.621,2.235 2.285,5.343 2.285,6.47 v 2.043 c -0.006,0.062 0,0.125 0,0.189 10e-4,2.358 -1.88,4.272 -4.2,4.272 m 9.672,-62.013995 c -1.562,4.611 -4.52,8.304995 -7.61,11.911995 -2.386,2.783 -5.19,5.125 -8.176,7.247 -0.144,0.103 -0.298,0.188 -0.685,0.427 1.781,-3.076 3.217,-5.998 3.633,-9.404 -4.234,1.002 -8.227,0.564 -12.093,-1.14 -6.862,-3.022995 -10.963,-9.617995 -10.263,-17.062996 0.573,-6.127 3.94,-10.543 9.321,-13.395 8.667,-4.593 19.734,-1.655 24.689,6.516 2.887,4.758 2.932,9.741001 1.184,14.900001"
         id="path3080"
         inkscape:connector-curvature="0" />
      <text
         xml:space="preserve"
         style="font-size:48px;font-style:normal;font-variant:normal;font-weight:normal;font-stretch:normal;text-align:start;line-height:125%;letter-spacing:0px;word-spacing:0px;writing-mode:lr-tb;text-anchor:start;fill:#262626;fill-opacity:1;stroke:none;font-family:Sans;-inkscape-font-specification:Sans"
         x="101.86024"
         y="154.51811"
         id="text3096"
         sodipodi:linespacing="125%"><tspan
           sodipodi:role="line"
           id="tspan3098"
           x="101.86024"
           y="154.51811"
           style="font-size:66.34587860000000603px;font-style:normal;font-variant:normal;font-weight:500;font-stretch:normal;text-align:start;line-height:125%;writing-mode:lr-tb;text-anchor:start;fill:#262626;fill-opacity:1;font-family:Kinnari;-inkscape-font-specification:Kinnari Medium" /></text>
    </g>
  </g>
</svg>
